# xmcd
#
# Track frame offsets:
#	150
#	19528
#	41121
#	59714
#	76330
#	93689
#	108217
#	127670
#	144586
#	158030
#
# Disc length: 2338 seconds
#
# Revision: 0
# Processed by: cddbd v1.5.2PL0 Copyright (c) Steve Scherf et al.
# Submitted via: audiograbber 1.83.01
#
DISCID=7c09200a
DTITLE=Hot Line Karaoke - Reba McEntire HL-02
DYEAR=2008
DGENRE=Karaoke Country
TTITLE0=Everything That You Want - Reba McEntire 
TTITLE1=Fancy - Reba McEntire 
TTITLE2=For Yourself - Reba McEntire 
TTITLE3=For My Broken Heart - Reba McEntire 
TTITLE4=Rumor Has It - Reba McEntire 
TTITLE5=It's Your Call - Reba McEntire 
TTITLE6=Silly Me - Reba McEntire 
TTITLE7=Somebody Should Leave - Reba McEntire 
TTITLE8=Sunday Kind Of Love - Reba McEntire 
TTITLE9=Till You Love Me - Reba McEntire 
EXTD=
EXTT0=
EXTT1=
EXTT2=
EXTT3=
EXTT4=
EXTT5=
EXTT6=
EXTT7=
EXTT8=
EXTT9=
PLAYORDER=
